<svg width="100" height="100" viewBox="0 0 100 100" fill="none" xmlns="http://www.w3.org/2000/svg">
<g clip-path="url(#clip0_2016_229)">
<rect width="100" height="100" rx="50" fill="white"/>
<rect width="50" height="50" fill="#FFCC00"/>
<rect x="50" width="50" height="50" fill="#0088FF"/>
<rect y="50" width="50" height="50" fill="#34C759"/>
<rect x="50" y="50" width="50" height="50" fill="#FF383C"/>
<mask id="path-6-outside-1_2016_229" maskUnits="userSpaceOnUse" x="18" y="12.8222" width="62" height="72" fill="black">
<rect fill="white" x="18" y="12.8222" width="62" height="72"/>
<path d="M35.4703 18.1476C38.4352 18.1476 40.7008 18.9587 42.2671 20.581C43.8894 22.1473 44.7005 24.4968 44.7005 27.6295C44.7005 29.9231 44.3369 32.5523 43.6097 35.5172C42.9384 38.4261 41.9594 41.1952 40.6728 43.8244L38.0716 42.7335C41.4839 41.7825 44.9802 41.335 48.5605 41.3909C52.1966 41.4469 55.4691 42.0063 58.3781 43.0692L55.609 43.237C54.8258 40.44 54.2384 37.6429 53.8469 34.8459C53.4553 32.0488 53.2595 29.5874 53.2595 27.4617C53.2595 24.2171 54.0986 21.7837 55.7768 20.1614C57.455 18.4832 59.9164 17.6441 63.161 17.6441C66.2937 17.6441 68.6991 18.4552 70.3773 20.0775C72.1115 21.6998 73.3142 24.1332 73.9855 27.3778C74.5449 29.8951 74.9645 32.9998 75.2442 36.6919C75.5798 40.3281 75.7477 43.9922 75.7477 47.6843C75.7477 51.3764 75.6078 55.1244 75.3281 58.9284C75.1043 62.6764 74.7128 66.2007 74.1533 69.5012C73.538 73.2492 72.3632 75.9903 70.6291 77.7245C68.8949 79.4027 66.2937 80.2418 62.8253 80.2418C59.1892 80.2418 56.56 79.3188 54.9377 77.4727C53.3154 75.6267 52.5043 72.6618 52.5043 68.5781C52.5043 66.0049 52.784 63.3477 53.3434 60.6066C53.9028 57.8096 54.686 55.0405 55.6929 52.2994L58.7137 54.2293C55.637 55.1244 52.3365 55.5719 48.8122 55.5719C45.3439 55.516 41.9594 55.0685 38.6589 54.2293L40.0854 52.0477C41.5399 54.8447 42.6867 57.7256 43.5258 60.6905C44.4208 63.6554 44.8684 66.6202 44.8684 69.5851C44.8684 73.3331 43.8614 76.1022 41.8476 77.8923C39.8896 79.6264 37.2325 80.4935 33.876 80.4935C31.1349 80.4935 28.8693 79.8222 27.0792 78.4797C25.345 77.0811 24.1423 74.6757 23.471 71.2633C23.0794 69.0257 22.7718 66.2566 22.548 62.9561C22.3242 59.5997 22.2124 56.0754 22.2124 52.3833C22.2124 47.8521 22.4082 43.4887 22.7997 39.2932C23.1913 35.0417 23.7507 31.3776 24.478 28.3008C25.2052 25.1681 26.4359 22.7067 28.1701 20.9166C29.9042 19.0706 32.3376 18.1476 35.4703 18.1476Z"/>
</mask>
<path d="M35.4703 18.1476C38.4352 18.1476 40.7008 18.9587 42.2671 20.581C43.8894 22.1473 44.7005 24.4968 44.7005 27.6295C44.7005 29.9231 44.3369 32.5523 43.6097 35.5172C42.9384 38.4261 41.9594 41.1952 40.6728 43.8244L38.0716 42.7335C41.4839 41.7825 44.9802 41.335 48.5605 41.3909C52.1966 41.4469 55.4691 42.0063 58.3781 43.0692L55.609 43.237C54.8258 40.44 54.2384 37.6429 53.8469 34.8459C53.4553 32.0488 53.2595 29.5874 53.2595 27.4617C53.2595 24.2171 54.0986 21.7837 55.7768 20.1614C57.455 18.4832 59.9164 17.6441 63.161 17.6441C66.2937 17.6441 68.6991 18.4552 70.3773 20.0775C72.1115 21.6998 73.3142 24.1332 73.9855 27.3778C74.5449 29.8951 74.9645 32.9998 75.2442 36.6919C75.5798 40.3281 75.7477 43.9922 75.7477 47.6843C75.7477 51.3764 75.6078 55.1244 75.3281 58.9284C75.1043 62.6764 74.7128 66.2007 74.1533 69.5012C73.538 73.2492 72.3632 75.9903 70.6291 77.7245C68.8949 79.4027 66.2937 80.2418 62.8253 80.2418C59.1892 80.2418 56.56 79.3188 54.9377 77.4727C53.3154 75.6267 52.5043 72.6618 52.5043 68.5781C52.5043 66.0049 52.784 63.3477 53.3434 60.6066C53.9028 57.8096 54.686 55.0405 55.6929 52.2994L58.7137 54.2293C55.637 55.1244 52.3365 55.5719 48.8122 55.5719C45.3439 55.516 41.9594 55.0685 38.6589 54.2293L40.0854 52.0477C41.5399 54.8447 42.6867 57.7256 43.5258 60.6905C44.4208 63.6554 44.8684 66.6202 44.8684 69.5851C44.8684 73.3331 43.8614 76.1022 41.8476 77.8923C39.8896 79.6264 37.2325 80.4935 33.876 80.4935C31.1349 80.4935 28.8693 79.8222 27.0792 78.4797C25.345 77.0811 24.1423 74.6757 23.471 71.2633C23.0794 69.0257 22.7718 66.2566 22.548 62.9561C22.3242 59.5997 22.2124 56.0754 22.2124 52.3833C22.2124 47.8521 22.4082 43.4887 22.7997 39.2932C23.1913 35.0417 23.7507 31.3776 24.478 28.3008C25.2052 25.1681 26.4359 22.7067 28.1701 20.9166C29.9042 19.0706 32.3376 18.1476 35.4703 18.1476Z" fill="white"/>
<path d="M42.2671 20.581L39.4375 23.3131L39.4854 23.3627L39.535 23.4106L42.2671 20.581ZM43.6097 35.5172L39.7896 34.5802L39.7832 34.6064L39.7771 34.6327L43.6097 35.5172ZM40.6728 43.8244L39.1517 47.4517L42.5744 48.887L44.2058 45.5533L40.6728 43.8244ZM38.0716 42.7335L37.0156 38.9446L26.1118 41.9833L36.5504 46.3608L38.0716 42.7335ZM48.5605 41.3909L48.499 45.3238L48.4999 45.3238L48.5605 41.3909ZM58.3781 43.0692L58.616 46.9953L59.7279 39.3747L58.3781 43.0692ZM55.609 43.237L51.8213 44.2975L52.6775 47.3552L55.8469 47.1631L55.609 43.237ZM53.8469 34.8459L49.9515 35.3912L49.9515 35.3912L53.8469 34.8459ZM55.7768 20.1614L58.5106 22.9895L58.5345 22.9663L58.5581 22.9427L55.7768 20.1614ZM70.3773 20.0775L67.6436 22.9055L67.6667 22.9279L67.6903 22.9499L70.3773 20.0775ZM73.9855 27.3778L70.1338 28.1747L70.1396 28.2029L70.1458 28.2311L73.9855 27.3778ZM75.2442 36.6919L71.3221 36.9891L71.3245 37.0213L71.3275 37.0535L75.2442 36.6919ZM75.3281 58.9284L71.4054 58.6399L71.4034 58.6669L71.4018 58.694L75.3281 58.9284ZM74.1533 69.5012L70.2753 68.8439L70.2736 68.8539L70.272 68.8639L74.1533 69.5012ZM70.6291 77.7245L73.3644 80.551L73.3876 80.5285L73.4104 80.5057L70.6291 77.7245ZM54.9377 77.4727L51.9831 80.0692L51.9831 80.0692L54.9377 77.4727ZM53.3434 60.6066L57.1973 61.3931L57.1988 61.3855L57.2003 61.378L53.3434 60.6066ZM55.6929 52.2994L57.8106 48.9848L53.6878 46.3508L52.0008 50.9431L55.6929 52.2994ZM58.7137 54.2293L59.8124 58.0061L68.1393 55.5837L60.8314 50.9147L58.7137 54.2293ZM48.8122 55.5719L48.7488 59.5047L48.7805 59.5053H48.8122V55.5719ZM38.6589 54.2293L35.3669 52.0768L32.3539 56.6848L37.6898 58.0414L38.6589 54.2293ZM40.0854 52.0477L43.5751 50.233L40.473 44.2674L36.7933 49.8951L40.0854 52.0477ZM43.5258 60.6905L39.7411 61.7616L39.7504 61.7945L39.7603 61.8273L43.5258 60.6905ZM41.8476 77.8923L44.4555 80.8367L44.4607 80.8321L41.8476 77.8923ZM27.0792 78.4797L24.61 81.5414L24.6639 81.5848L24.7192 81.6263L27.0792 78.4797ZM23.471 71.2633L19.5966 71.9413L19.6037 71.982L19.6117 72.0225L23.471 71.2633ZM22.548 62.9561L18.6234 63.2177L18.6237 63.2222L22.548 62.9561ZM22.7997 39.2932L26.7161 39.6587L26.7165 39.6539L22.7997 39.2932ZM24.478 28.3008L28.3058 29.2056L28.3076 29.1979L28.3094 29.1903L24.478 28.3008ZM28.1701 20.9166L30.9951 23.6534L31.0162 23.6317L31.0369 23.6097L28.1701 20.9166ZM35.4703 18.1476V22.0809C37.7187 22.0809 38.8249 22.6786 39.4375 23.3131L42.2671 20.581L45.0968 17.8489C42.5766 15.2388 39.1516 14.2142 35.4703 14.2142V18.1476ZM42.2671 20.581L39.535 23.4106C40.1299 23.985 40.7672 25.1389 40.7672 27.6295H44.7005H48.6339C48.6339 23.8548 47.6489 20.3097 44.9992 17.7513L42.2671 20.581ZM44.7005 27.6295H40.7672C40.7672 29.5231 40.4647 31.8277 39.7896 34.5802L43.6097 35.5172L47.4298 36.4542C48.2091 33.2769 48.6339 30.323 48.6339 27.6295H44.7005ZM43.6097 35.5172L39.7771 34.6327C39.1718 37.2555 38.2921 39.7407 37.1398 42.0955L40.6728 43.8244L44.2058 45.5533C45.6267 42.6496 46.705 39.5967 47.4423 36.4016L43.6097 35.5172ZM40.6728 43.8244L42.1939 40.1971L39.5927 39.1062L38.0716 42.7335L36.5504 46.3608L39.1517 47.4517L40.6728 43.8244ZM38.0716 42.7335L39.1275 46.5225C42.1723 45.6739 45.2921 45.2737 48.499 45.3238L48.5605 41.3909L48.6219 37.4581C44.6684 37.3963 40.7956 37.8911 37.0156 38.9446L38.0716 42.7335ZM48.5605 41.3909L48.4999 45.3238C51.7709 45.3741 54.5976 45.8755 57.0282 46.7636L58.3781 43.0692L59.7279 39.3747C56.3406 38.1371 52.6223 37.5196 48.621 37.4581L48.5605 41.3909ZM58.3781 43.0692L58.1401 39.143L55.371 39.3109L55.609 43.237L55.8469 47.1631L58.616 46.9953L58.3781 43.0692ZM55.609 43.237L59.3966 42.1764C58.6595 39.5438 58.1087 36.9188 57.7422 34.3005L53.8469 34.8459L49.9515 35.3912C50.3681 38.3671 50.9921 41.3362 51.8213 44.2975L55.609 43.237ZM53.8469 34.8459L57.7422 34.3005C57.3682 31.6294 57.1928 29.357 57.1928 27.4617H53.2595H49.3261C49.3261 29.8179 49.5423 32.4683 49.9515 35.3912L53.8469 34.8459ZM53.2595 27.4617H57.1928C57.1928 24.858 57.8588 23.6195 58.5106 22.9895L55.7768 20.1614L53.0431 17.3334C50.3384 19.9479 49.3261 23.5763 49.3261 27.4617H53.2595ZM55.7768 20.1614L58.5581 22.9427C59.2613 22.2395 60.5675 21.5774 63.161 21.5774V17.6441V13.7108C59.2653 13.7108 55.6488 14.7269 52.9955 17.3801L55.7768 20.1614ZM63.161 17.6441V21.5774C65.6314 21.5774 66.9211 22.2071 67.6436 22.9055L70.3773 20.0775L73.1111 17.2495C70.4771 14.7033 66.9559 13.7108 63.161 13.7108V17.6441ZM70.3773 20.0775L67.6903 22.9499C68.6383 23.8368 69.5639 25.4206 70.1338 28.1747L73.9855 27.3778L77.8373 26.5809C77.0645 22.8459 75.5847 19.5628 73.0644 17.2051L70.3773 20.0775ZM73.9855 27.3778L70.1458 28.2311C70.6512 30.5053 71.051 33.4108 71.3221 36.9891L75.2442 36.6919L79.1663 36.3948C78.8779 32.5888 78.4386 29.2849 77.8252 26.5245L73.9855 27.3778ZM75.2442 36.6919L71.3275 37.0535C71.6519 40.5681 71.8143 44.1116 71.8143 47.6843H75.7477H79.681C79.681 43.8728 79.5077 40.088 79.1609 36.3304L75.2442 36.6919ZM75.7477 47.6843H71.8143C71.8143 51.277 71.6782 54.9288 71.4054 58.6399L75.3281 58.9284L79.2508 59.2168C79.5374 55.32 79.681 51.4757 79.681 47.6843H75.7477ZM75.3281 58.9284L71.4018 58.694C71.1855 62.317 70.8084 65.699 70.2753 68.8439L74.1533 69.5012L78.0314 70.1585C78.6171 66.7023 79.0232 63.0358 79.2544 59.1628L75.3281 58.9284ZM74.1533 69.5012L70.272 68.8639C69.7216 72.2159 68.7597 74.0313 67.8478 74.9432L70.6291 77.7245L73.4104 80.5057C75.9668 77.9493 77.3543 74.2825 78.0347 70.1384L74.1533 69.5012ZM70.6291 77.7245L67.8938 74.898C67.1612 75.6069 65.7191 76.3085 62.8253 76.3085V80.2418V84.1751C66.8682 84.1751 70.6287 83.1984 73.3644 80.551L70.6291 77.7245ZM62.8253 80.2418V76.3085C59.7702 76.3085 58.4685 75.532 57.8923 74.8763L54.9377 77.4727L51.9831 80.0692C54.6515 83.1056 58.6082 84.1751 62.8253 84.1751V80.2418ZM54.9377 77.4727L57.8923 74.8763C57.2032 74.0922 56.4376 72.2939 56.4376 68.5781H52.5043H48.5709C48.5709 73.0297 49.4276 77.1612 51.9831 80.0692L54.9377 77.4727ZM52.5043 68.5781H56.4376C56.4376 66.2908 56.6862 63.8976 57.1973 61.3931L53.3434 60.6066L49.4895 59.8201C48.8818 62.7978 48.5709 65.7189 48.5709 68.5781H52.5043ZM53.3434 60.6066L57.2003 61.378C57.719 58.7845 58.4464 56.2109 59.385 53.6557L55.6929 52.2994L52.0008 50.9431C50.9256 53.8701 50.0866 56.8346 49.4864 59.8352L53.3434 60.6066ZM55.6929 52.2994L53.5752 55.614L56.596 57.544L58.7137 54.2293L60.8314 50.9147L57.8106 48.9848L55.6929 52.2994ZM58.7137 54.2293L57.615 50.4526C54.9289 51.234 52.0014 51.6386 48.8122 51.6386V55.5719V59.5053C52.6715 59.5053 56.345 59.0148 59.8124 58.0061L58.7137 54.2293ZM48.8122 55.5719L48.8756 51.6391C45.7072 51.588 42.6269 51.1797 39.6281 50.4173L38.6589 54.2293L37.6898 58.0414C41.292 58.9572 44.9806 59.444 48.7488 59.5047L48.8122 55.5719ZM38.6589 54.2293L41.951 56.3819L43.3775 54.2002L40.0854 52.0477L36.7933 49.8951L35.3669 52.0768L38.6589 54.2293ZM40.0854 52.0477L36.5957 53.8623C37.9297 56.4277 38.9765 59.0599 39.7411 61.7616L43.5258 60.6905L47.3105 59.6194C46.3969 56.3914 45.1501 53.2617 43.5751 50.233L40.0854 52.0477ZM43.5258 60.6905L39.7603 61.8273C40.549 64.44 40.935 67.0222 40.935 69.5851H44.8684H48.8017C48.8017 66.2183 48.2926 62.8708 47.2913 59.5537L43.5258 60.6905ZM44.8684 69.5851H40.935C40.935 72.665 40.1195 74.1657 39.2344 74.9525L41.8476 77.8923L44.4607 80.8321C47.6033 78.0387 48.8017 74.0012 48.8017 69.5851H44.8684ZM41.8476 77.8923L39.2396 74.9478C38.1861 75.8809 36.5515 76.5602 33.876 76.5602V80.4935V84.4269C37.9134 84.4269 41.5932 83.3719 44.4555 80.8367L41.8476 77.8923ZM33.876 80.4935V76.5602C31.7903 76.5602 30.407 76.0588 29.4392 75.333L27.0792 78.4797L24.7192 81.6263C27.3316 83.5856 30.4795 84.4269 33.876 84.4269V80.4935ZM27.0792 78.4797L29.5484 75.4179C28.8412 74.8476 27.9182 73.4921 27.3304 70.5041L23.471 71.2633L19.6117 72.0225C20.3664 75.8593 21.8489 79.3147 24.61 81.5414L27.0792 78.4797ZM23.471 71.2633L27.3455 70.5853C26.9858 68.53 26.6905 65.9086 26.4723 62.69L22.548 62.9561L18.6237 63.2222C18.853 66.6046 19.1731 69.5213 19.5966 71.9413L23.471 71.2633ZM22.548 62.9561L26.4726 62.6945C26.2552 59.433 26.1457 55.9964 26.1457 52.3833H22.2124H18.279C18.279 56.1544 18.3933 59.7663 18.6234 63.2177L22.548 62.9561ZM22.2124 52.3833H26.1457C26.1457 47.9651 26.3366 43.7241 26.7161 39.6587L22.7997 39.2932L18.8834 38.9276C18.4797 43.2534 18.279 47.7391 18.279 52.3833H22.2124ZM22.7997 39.2932L26.7165 39.6539C27.0966 35.5267 27.6326 32.0537 28.3058 29.2056L24.478 28.3008L20.6501 27.396C19.8688 30.7014 19.286 34.5566 18.883 38.9324L22.7997 39.2932ZM24.478 28.3008L28.3094 29.1903C28.9211 26.5551 29.8826 24.8018 30.9951 23.6534L28.1701 20.9166L25.345 18.1798C22.9891 20.6117 21.4892 23.7812 20.6465 27.4114L24.478 28.3008ZM28.1701 20.9166L31.0369 23.6097C31.858 22.7355 33.1482 22.0809 35.4703 22.0809V18.1476V14.2142C31.5271 14.2142 27.9504 15.4056 25.3032 18.2236L28.1701 20.9166Z" fill="black" mask="url(#path-6-outside-1_2016_229)"/>
</g>
<defs>
<clipPath id="clip0_2016_229">
<rect width="100" height="100" rx="50" fill="white"/>
</clipPath>
</defs>
</svg>
